<svg xmlns="http://www.w3.org/2000/svg" xmlns:xlink="http://www.w3.org/1999/xlink" width="1920" zoomAndPan="magnify" viewBox="0 0 1440 809.999993" height="1080" preserveAspectRatio="xMidYMid meet" version="1.0"><defs><clipPath id="b2fc41a542"><path d="M 45.199219 22 L 411 22 L 411 518 L 45.199219 518 Z M 45.199219 22 " clip-rule="nonzero"/></clipPath><clipPath id="d40ba9b223"><path d="M 131.761719 242.78125 C 129.269531 240.289062 121.515625 212.542969 120.425781 206.964844 C 119.292969 200.890625 117.296875 187.515625 116.9375 181.664062 C 115.894531 163.03125 128.769531 170.601562 141.191406 169.105469 C 177.375 164.753906 218.359375 137.914062 228.0625 101.234375 C 235.679688 106.902344 236.8125 121.5 242.617188 130.429688 C 261.023438 158.722656 303.644531 175.679688 336.878906 166.160156 C 344.402344 174.457031 332.164062 235.390625 324.136719 243.417969 C 297.207031 251.941406 250.1875 259.152344 226.882812 286.082031 C 203.578125 259.015625 158.105469 253.390625 131.714844 242.738281 M 216.863281 500.539062 C 165.132812 475.148438 111.632812 452.886719 56.816406 434.796875 L 56.816406 246.230469 C 101.746094 251.667969 186.804688 265.316406 216.863281 299.09375 C 216.863281 299.09375 216.863281 500.582031 216.863281 500.582031 M 399.808594 246.230469 L 399.808594 434.839844 L 239.804688 497.679688 L 239.804688 299.09375 C 278.527344 261.417969 347.394531 252.757812 399.808594 246.230469 M 410.917969 443.320312 L 410.871094 236.570312 C 408.46875 228.230469 387.476562 233.125 379.769531 231.945312 C 381.175781 163.300781 371.652344 84.140625 308.085938 44.964844 C 191.339844 -18.011719 78.125 61.652344 76.855469 190.414062 C 76.222656 198.667969 79.9375 233.625 72.730469 234.257812 C 65.066406 234.894531 49.335938 224.738281 45.480469 241.921875 L 45.84375 443.230469 C 45.84375 443.230469 209.5625 512.6875 222.621094 517.675781 L 233.957031 517.902344 C 257.488281 516.359375 410.917969 443.273438 410.917969 443.273438 " clip-rule="nonzero"/></clipPath><clipPath id="14777baa9e"><path d="M 0.28125 0 L 366 0 L 366 496 L 0.28125 496 Z M 0.28125 0 " clip-rule="nonzero"/></clipPath><clipPath id="8ed0d963eb"><path d="M 86.761719 220.78125 C 84.269531 218.289062 76.515625 190.542969 75.425781 184.964844 C 74.292969 178.890625 72.296875 165.515625 71.9375 159.664062 C 70.894531 141.03125 83.769531 148.601562 96.191406 147.105469 C 132.375 142.753906 173.359375 115.914062 183.0625 79.234375 C 190.679688 84.902344 191.8125 99.5 197.617188 108.429688 C 216.023438 136.722656 258.644531 153.679688 291.878906 144.160156 C 299.402344 152.457031 287.164062 213.390625 279.136719 221.417969 C 252.207031 229.941406 205.1875 237.152344 181.882812 264.082031 C 158.578125 237.015625 113.105469 231.390625 86.714844 220.738281 M 171.863281 478.539062 C 120.132812 453.148438 66.632812 430.886719 11.816406 412.796875 L 11.816406 224.230469 C 56.746094 229.667969 141.804688 243.316406 171.863281 277.09375 C 171.863281 277.09375 171.863281 478.582031 171.863281 478.582031 M 354.808594 224.230469 L 354.808594 412.839844 L 194.804688 475.679688 L 194.804688 277.09375 C 233.527344 239.417969 302.394531 230.757812 354.808594 224.230469 M 365.917969 421.320312 L 365.871094 214.570312 C 363.46875 206.230469 342.476562 211.125 334.769531 209.945312 C 336.175781 141.300781 326.652344 62.140625 263.085938 22.964844 C 146.339844 -40.011719 33.125 39.652344 31.855469 168.414062 C 31.222656 176.667969 34.9375 211.625 27.730469 212.257812 C 20.066406 212.894531 4.335938 202.738281 0.480469 219.921875 L 0.84375 421.230469 C 0.84375 421.230469 164.5625 490.6875 177.621094 495.675781 L 188.957031 495.902344 C 212.488281 494.359375 365.917969 421.273438 365.917969 421.273438 " clip-rule="nonzero"/></clipPath><clipPath id="d72d695f3d"><rect x="0" width="366" y="0" height="496"/></clipPath><clipPath id="1e158cdcab"><path d="M 156 194 L 200 194 L 200 215 L 156 215 Z M 156 194 " clip-rule="nonzero"/></clipPath><clipPath id="656e6f3162"><path d="M 195.507812 194.8125 C 183.175781 205.378906 173.609375 205.421875 161.234375 194.8125 C 141.554688 213.359375 195.011719 222.425781 199.453125 204.425781 C 200.585938 200.527344 197.867188 194.722656 195.507812 194.8125 " clip-rule="nonzero"/></clipPath><clipPath id="7b05996506"><path d="M 0 0.558594 L 44 0.558594 L 44 21 L 0 21 Z M 0 0.558594 " clip-rule="nonzero"/></clipPath><clipPath id="dfdfe8c41a"><path d="M 39.507812 0.8125 C 27.175781 11.378906 17.609375 11.421875 5.234375 0.8125 C -14.445312 19.359375 39.011719 28.425781 43.453125 10.425781 C 44.585938 6.527344 41.867188 0.722656 39.507812 0.8125 " clip-rule="nonzero"/></clipPath><clipPath id="658a1b1ec3"><rect x="0" width="44" y="0" height="21"/></clipPath><clipPath id="77203f3c23"><path d="M 256.425781 194 L 302 194 L 302 214 L 256.425781 214 Z M 256.425781 194 " clip-rule="nonzero"/></clipPath><clipPath id="722972fada"><path d="M 263.472656 209.640625 C 274.171875 218.300781 308.3125 212.179688 299.789062 194.769531 C 278.480469 202.476562 282.152344 208.550781 261.207031 194.8125 C 256.398438 194.859375 253.996094 204.789062 263.472656 209.640625 " clip-rule="nonzero"/></clipPath><clipPath id="1c5e9462c1"><path d="M 0.425781 0.558594 L 46 0.558594 L 46 20 L 0.425781 20 Z M 0.425781 0.558594 " clip-rule="nonzero"/></clipPath><clipPath id="6fc6d16e0c"><path d="M 7.472656 15.640625 C 18.171875 24.300781 52.3125 18.179688 43.789062 0.769531 C 22.480469 8.476562 26.152344 14.550781 5.207031 0.8125 C 0.398438 0.859375 -2.003906 10.789062 7.472656 15.640625 " clip-rule="nonzero"/></clipPath><clipPath id="5c0a9912c3"><rect x="0" width="46" y="0" height="20"/></clipPath><clipPath id="c80e20c174"><path d="M 239 246 L 400 246 L 400 498 L 239 498 Z M 239 246 " clip-rule="nonzero"/></clipPath><clipPath id="8773667440"><path d="M 399.808594 246.230469 L 399.808594 434.839844 L 239.804688 497.679688 L 239.804688 299.09375 C 278.480469 261.417969 347.394531 252.757812 399.808594 246.230469 " clip-rule="nonzero"/></clipPath><clipPath id="0c8f9cdce3"><path d="M 0.679688 0.160156 L 161 0.160156 L 161 251.921875 L 0.679688 251.921875 Z M 0.679688 0.160156 " clip-rule="nonzero"/></clipPath><clipPath id="b48e5029b3"><path d="M 160.808594 0.230469 L 160.808594 188.839844 L 0.804688 251.679688 L 0.804688 53.09375 C 39.480469 15.417969 108.394531 6.757812 160.808594 0.230469 " clip-rule="nonzero"/></clipPath><clipPath id="e8508f2ff7"><rect x="0" width="161" y="0" height="252"/></clipPath><clipPath id="b8ad1b7fa0"><path d="M 56 246 L 217 246 L 217 500.867188 L 56 500.867188 Z M 56 246 " clip-rule="nonzero"/></clipPath><clipPath id="bcc5288999"><path d="M 216.910156 500.539062 C 165.175781 475.148438 111.675781 452.886719 56.859375 434.796875 L 56.859375 246.230469 C 101.792969 251.667969 186.847656 265.316406 216.910156 299.09375 C 216.910156 299.09375 216.910156 500.582031 216.910156 500.582031 " clip-rule="nonzero"/></clipPath><clipPath id="2980659f07"><path d="M 0.800781 0.160156 L 161 0.160156 L 161 254.800781 L 0.800781 254.800781 Z M 0.800781 0.160156 " clip-rule="nonzero"/></clipPath><clipPath id="02123265dc"><path d="M 160.910156 254.539062 C 109.175781 229.148438 55.675781 206.886719 0.859375 188.796875 L 0.859375 0.230469 C 45.792969 5.667969 130.847656 19.316406 160.910156 53.09375 C 160.910156 53.09375 160.910156 254.582031 160.910156 254.582031 " clip-rule="nonzero"/></clipPath><clipPath id="0178d04003"><rect x="0" width="161" y="0" height="255"/></clipPath><clipPath id="d2391acb94"><path d="M 31 307 L 73 307 L 73 332 L 31 332 Z M 31 307 " clip-rule="nonzero"/></clipPath><clipPath id="bd4714fda6"><path d="M 72.683594 324.621094 C 69.554688 338.855469 27.34375 327.886719 31.5625 313.921875 C 34.691406 299.683594 76.902344 310.65625 72.683594 324.621094 " clip-rule="nonzero"/></clipPath><clipPath id="5277b85dab"><path d="M 0 0 L 42 0 L 42 25 L 0 25 Z M 0 0 " clip-rule="nonzero"/></clipPath><clipPath id="de8787eb52"><path d="M 41.683594 17.621094 C 38.554688 31.855469 -3.65625 20.886719 0.5625 6.921875 C 3.691406 -7.316406 45.902344 3.65625 41.683594 17.621094 " clip-rule="nonzero"/></clipPath><clipPath id="bd2bf1bcc0"><rect x="0" width="42" y="0" height="25"/></clipPath><clipPath id="d5eeffca6c"><path d="M 26 302.0625 L 78 302.0625 L 78 337 L 26 337 Z M 26 302.0625 " clip-rule="nonzero"/></clipPath><clipPath id="b4be3ebfd2"><path d="M 45.617188 311.652344 C 17.460938 314.148438 61.257812 335.546875 68.285156 323.441406 C 66.835938 315.417969 53.371094 311.746094 45.617188 311.652344 M 58.628906 335.957031 C 40.175781 338.765625 10.117188 312.605469 38.542969 303.355469 C 52.28125 299.867188 79.757812 308.480469 77.039062 325.753906 C 75.632812 332.691406 66.066406 336.226562 58.582031 335.957031 " clip-rule="nonzero"/></clipPath><clipPath id="52d28c7050"><path d="M 0 0.0625 L 52 0.0625 L 52 35 L 0 35 Z M 0 0.0625 " clip-rule="nonzero"/></clipPath><clipPath id="8287169f6f"><path d="M 19.617188 9.652344 C -8.539062 12.148438 35.257812 33.546875 42.285156 21.441406 C 40.835938 13.417969 27.371094 9.746094 19.617188 9.652344 M 32.628906 33.957031 C 14.175781 36.765625 -15.882812 10.605469 12.542969 1.355469 C 26.28125 -2.132812 53.757812 6.480469 51.039062 23.753906 C 49.632812 30.691406 40.066406 34.226562 32.582031 33.957031 " clip-rule="nonzero"/></clipPath><clipPath id="df4b8a9e14"><rect x="0" width="52" y="0" height="35"/></clipPath><clipPath id="6eddae65fa"><path d="M 31 347 L 68 347 L 68 367.742188 L 31 367.742188 Z M 31 347 " clip-rule="nonzero"/></clipPath><clipPath id="598411104c"><path d="M 67.152344 361.84375 C 64.523438 373.859375 28.480469 364.472656 32.015625 352.6875 C 34.644531 340.714844 70.691406 350.054688 67.152344 361.84375 " clip-rule="nonzero"/></clipPath><clipPath id="0ec3f34dec"><path d="M 0 0 L 37 0 L 37 20.742188 L 0 20.742188 Z M 0 0 " clip-rule="nonzero"/></clipPath><clipPath id="f20e1fd3bc"><path d="M 36.152344 14.84375 C 33.523438 26.859375 -2.519531 17.472656 1.015625 5.6875 C 3.644531 -6.285156 39.691406 3.054688 36.152344 14.84375 " clip-rule="nonzero"/></clipPath><clipPath id="a542aaa6e4"><rect x="0" width="37" y="0" height="21"/></clipPath><clipPath id="fc2c0e0a0f"><path d="M 27 342 L 73 342 L 73 373 L 27 373 Z M 27 342 " clip-rule="nonzero"/></clipPath><clipPath id="13189c85ca"><path d="M 43.984375 351.550781 C 22.039062 353.410156 57.585938 369.1875 62.753906 360.710938 C 64.433594 358.035156 49.925781 350.464844 43.984375 351.550781 M 55.273438 372.089844 C 43.9375 372.226562 25.167969 364.699219 27.664062 351.597656 C 38.996094 323.714844 102.019531 365.378906 55.273438 372.089844 " clip-rule="nonzero"/></clipPath><clipPath id="2f25b20c8f"><path d="M 0 0 L 46 0 L 46 30.398438 L 0 30.398438 Z M 0 0 " clip-rule="nonzero"/></clipPath><clipPath id="8b05494dea"><path d="M 16.984375 9.550781 C -4.960938 11.410156 30.585938 27.1875 35.753906 18.710938 C 37.433594 16.035156 22.925781 8.464844 16.984375 9.550781 M 28.273438 30.089844 C 16.9375 30.226562 -1.832031 22.699219 0.664062 9.597656 C 11.996094 -18.285156 75.019531 23.378906 28.273438 30.089844 " clip-rule="nonzero"/></clipPath><clipPath id="b7b12003d0"><rect x="0" width="46" y="0" height="31"/></clipPath><clipPath id="cb42f0ce14"><path d="M 28 327 L 73 327 L 73 349.992188 L 28 349.992188 Z M 28 327 " clip-rule="nonzero"/></clipPath><clipPath id="ebdb24638a"><path d="M 71.867188 344.117188 C 69.421875 356.175781 24.761719 344.570312 28.523438 332.828125 C 30.972656 320.765625 75.632812 332.375 71.867188 344.117188 " clip-rule="nonzero"/></clipPath><clipPath id="1f97ffd572"><path d="M 0 0 L 45 0 L 45 22.992188 L 0 22.992188 Z M 0 0 " clip-rule="nonzero"/></clipPath><clipPath id="797a72c739"><path d="M 43.867188 17.117188 C 41.421875 29.175781 -3.238281 17.570312 0.523438 5.828125 C 2.972656 -6.234375 47.632812 5.375 43.867188 17.117188 " clip-rule="nonzero"/></clipPath><clipPath id="b7fa891297"><rect x="0" width="45" y="0" height="23"/></clipPath><clipPath id="fc183011f9"><path d="M 23 322 L 77 322 L 77 354 L 23 354 Z M 23 322 " clip-rule="nonzero"/></clipPath><clipPath id="dc7be6f76b"><path d="M 41.039062 332.191406 C 13.335938 333.644531 65.703125 350.507812 67.46875 342.984375 C 68.695312 339.855469 48.066406 330.832031 41.039062 332.191406 M 59.398438 353.820312 C 41.21875 356.085938 4.222656 332.28125 35.914062 323.488281 C 57.132812 317.140625 101.429688 348.921875 59.398438 353.820312 " clip-rule="nonzero"/></clipPath><clipPath id="2d4dde2417"><path d="M 0 0 L 54 0 L 54 32 L 0 32 Z M 0 0 " clip-rule="nonzero"/></clipPath><clipPath id="2eb92135e3"><path d="M 18.039062 10.191406 C -9.664062 11.644531 42.703125 28.507812 44.46875 20.984375 C 45.695312 17.855469 25.066406 8.832031 18.039062 10.191406 M 36.398438 31.820312 C 18.21875 34.085938 -18.777344 10.28125 12.914062 1.488281 C 34.132812 -4.859375 78.429688 26.921875 36.398438 31.820312 " clip-rule="nonzero"/></clipPath><clipPath id="2f047f7e59"><rect x="0" width="54" y="0" height="32"/></clipPath><clipPath id="684a3607b4"><path d="M 383 307 L 425 307 L 425 332 L 383 332 Z M 383 307 " clip-rule="nonzero"/></clipPath><clipPath id="b201e657c1"><path d="M 383.351562 324.621094 C 386.480469 338.855469 428.691406 327.886719 424.472656 313.921875 C 421.34375 299.683594 379.132812 310.65625 383.351562 324.621094 " clip-rule="nonzero"/></clipPath><clipPath id="ec8932ef47"><path d="M 0 0 L 42 0 L 42 25 L 0 25 Z M 0 0 " clip-rule="nonzero"/></clipPath><clipPath id="a51f53bd28"><path d="M 0.351562 17.621094 C 3.480469 31.855469 45.691406 20.886719 41.472656 6.921875 C 38.34375 -7.316406 -3.867188 3.65625 0.351562 17.621094 " clip-rule="nonzero"/></clipPath><clipPath id="7747a4a780"><rect x="0" width="42" y="0" height="25"/></clipPath><clipPath id="e9f13c58eb"><path d="M 378 302.0625 L 430 302.0625 L 430 337 L 378 337 Z M 378 302.0625 " clip-rule="nonzero"/></clipPath><clipPath id="08ed0aacc0"><path d="M 387.75 323.488281 C 394.777344 335.546875 438.621094 314.148438 410.417969 311.699219 C 402.664062 311.835938 389.199219 315.507812 387.75 323.488281 M 378.953125 325.753906 C 376.230469 308.480469 403.753906 299.867188 417.492188 303.355469 C 445.917969 312.605469 415.90625 338.722656 397.40625 335.957031 C 389.96875 336.226562 380.402344 332.691406 378.953125 325.753906 " clip-rule="nonzero"/></clipPath><clipPath id="58e3e9472c"><path d="M 0 0.0625 L 52 0.0625 L 52 35 L 0 35 Z M 0 0.0625 " clip-rule="nonzero"/></clipPath><clipPath id="62c62a8f67"><path d="M 9.75 21.488281 C 16.777344 33.546875 60.621094 12.148438 32.417969 9.699219 C 24.664062 9.835938 11.199219 13.507812 9.75 21.488281 M 0.953125 23.753906 C -1.769531 6.480469 25.753906 -2.132812 39.492188 1.355469 C 67.917969 10.605469 37.90625 36.722656 19.40625 33.957031 C 11.96875 34.226562 2.402344 30.691406 0.953125 23.753906 " clip-rule="nonzero"/></clipPath><clipPath id="377edffbad"><rect x="0" width="52" y="0" height="35"/></clipPath><clipPath id="87f7a2eecf"><path d="M 388 347 L 425 347 L 425 367.742188 L 388 367.742188 Z M 388 347 " clip-rule="nonzero"/></clipPath><clipPath id="174575dc50"><path d="M 388.925781 361.84375 C 391.558594 373.859375 427.601562 364.472656 424.019531 352.6875 C 421.390625 340.714844 385.34375 350.054688 388.925781 361.84375 " clip-rule="nonzero"/></clipPath><clipPath id="5fede5c98f"><path d="M 0 0 L 37 0 L 37 20.742188 L 0 20.742188 Z M 0 0 " clip-rule="nonzero"/></clipPath><clipPath id="c4c1eb7a77"><path d="M 0.925781 14.84375 C 3.558594 26.859375 39.601562 17.472656 36.019531 5.6875 C 33.390625 -6.285156 -2.65625 3.054688 0.925781 14.84375 " clip-rule="nonzero"/></clipPath><clipPath id="48987402f6"><rect x="0" width="37" y="0" height="21"/></clipPath><clipPath id="16c951d150"><path d="M 383 342 L 428.605469 342 L 428.605469 373 L 383 373 Z M 383 342 " clip-rule="nonzero"/></clipPath><clipPath id="3cdbc9c1d7"><path d="M 393.28125 360.710938 C 398.449219 369.1875 433.996094 353.410156 412.050781 351.550781 C 406.066406 350.464844 391.601562 358.035156 393.28125 360.710938 M 428.371094 351.550781 C 430.867188 364.699219 412.097656 372.183594 400.761719 372.046875 C 354.0625 365.335938 417.039062 323.625 428.371094 351.550781 " clip-rule="nonzero"/></clipPath><clipPath id="8bfd7d81ae"><path d="M 0 0 L 45.605469 0 L 45.605469 30.398438 L 0 30.398438 Z M 0 0 " clip-rule="nonzero"/></clipPath><clipPath id="2bb8ebf1d6"><path d="M 10.28125 18.710938 C 15.449219 27.1875 50.996094 11.410156 29.050781 9.550781 C 23.066406 8.464844 8.601562 16.035156 10.28125 18.710938 M 45.371094 9.550781 C 47.867188 22.699219 29.097656 30.183594 17.761719 30.046875 C -28.9375 23.335938 34.039062 -18.375 45.371094 9.550781 " clip-rule="nonzero"/></clipPath><clipPath id="335a6dc11a"><rect x="0" width="46" y="0" height="31"/></clipPath><clipPath id="d2626a47d7"><path d="M 383 327 L 428 327 L 428 349.992188 L 383 349.992188 Z M 383 327 " clip-rule="nonzero"/></clipPath><clipPath id="f55a44304c"><path d="M 384.167969 344.117188 C 386.613281 356.175781 431.273438 344.570312 427.511719 332.828125 C 425.0625 320.765625 380.402344 332.375 384.167969 344.117188 " clip-rule="nonzero"/></clipPath><clipPath id="90212a06d6"><path d="M 0 0 L 45 0 L 45 22.992188 L 0 22.992188 Z M 0 0 " clip-rule="nonzero"/></clipPath><clipPath id="59203d6cf9"><path d="M 1.167969 17.117188 C 3.613281 29.175781 48.273438 17.570312 44.511719 5.828125 C 42.0625 -6.234375 -2.597656 5.375 1.167969 17.117188 " clip-rule="nonzero"/></clipPath><clipPath id="c2722757f3"><rect x="0" width="45" y="0" height="23"/></clipPath><clipPath id="a2ff1fc135"><path d="M 379 322 L 433 322 L 433 354 L 379 354 Z M 379 322 " clip-rule="nonzero"/></clipPath><clipPath id="e4475ad567"><path d="M 388.609375 342.984375 C 390.378906 350.554688 442.746094 333.644531 415.042969 332.191406 C 408.015625 330.785156 387.386719 339.855469 388.609375 342.984375 M 420.167969 323.488281 C 451.859375 332.28125 414.863281 356.085938 396.679688 353.820312 C 354.605469 348.921875 398.949219 317.140625 420.167969 323.488281 " clip-rule="nonzero"/></clipPath><clipPath id="076fb51a2c"><path d="M 0 0 L 54 0 L 54 32 L 0 32 Z M 0 0 " clip-rule="nonzero"/></clipPath><clipPath id="da357b1259"><path d="M 9.609375 20.984375 C 11.378906 28.554688 63.746094 11.644531 36.042969 10.191406 C 29.015625 8.785156 8.386719 17.855469 9.609375 20.984375 M 41.167969 1.488281 C 72.859375 10.28125 35.863281 34.085938 17.679688 31.820312 C -24.394531 26.921875 19.949219 -4.859375 41.167969 1.488281 " clip-rule="nonzero"/></clipPath><clipPath id="4464cb8e84"><rect x="0" width="54" y="0" height="32"/></clipPath><clipPath id="1675e29660"><path d="M 1002 202 L 1078.597656 202 L 1078.597656 450 L 1002 450 Z M 1002 202 " clip-rule="nonzero"/></clipPath><clipPath id="91e855c32e"><path d="M 1020.566406 322.039062 L 1061.421875 322.039062 L 1061.421875 239.722656 C 1061.421875 230.988281 1051.417969 219.058594 1042.308594 217.886719 C 1024.652344 215.632812 1019.390625 240.707031 1018.734375 253.761719 C 1020.988281 277.335938 1020.753906 298.703125 1020.566406 321.992188 M 1077.386719 425.535156 C 1075.320312 437.839844 1061.5625 447.65625 1049.679688 449.25 C 1015.496094 453.945312 1006.195312 421.167969 1004.460938 393.746094 C 1001.828125 352.375 1000.9375 283.957031 1004.460938 243.148438 C 1006.902344 215.023438 1028.738281 192.8125 1057.664062 206.289062 C 1088.9375 226.433594 1074.851562 296.121094 1076.539062 329.179688 C 1070.90625 347.210938 1032.398438 331.101562 1020.519531 338.804688 L 1020.519531 400.789062 C 1020.519531 403.75 1024.324219 416.804688 1025.824219 420.277344 C 1030.664062 431.6875 1038.503906 436.335938 1051.183594 433.050781 C 1070.203125 428.167969 1058.929688 394.261719 1064.050781 383.933594 C 1066.585938 378.8125 1077.386719 378.625 1077.386719 384.824219 C 1077.386719 396.234375 1079.125 415.347656 1077.386719 425.535156 " clip-rule="nonzero"/></clipPath><clipPath id="bdb4f008d7"><path d="M 0 0 L 76.597656 0 L 76.597656 248 L 0 248 Z M 0 0 " clip-rule="nonzero"/></clipPath><clipPath id="0502be79a2"><path d="M 18.566406 120.039062 L 59.421875 120.039062 L 59.421875 37.722656 C 59.421875 28.988281 49.417969 17.058594 40.308594 15.886719 C 22.652344 13.632812 17.390625 38.707031 16.734375 51.761719 C 18.988281 75.335938 18.753906 96.703125 18.566406 119.992188 M 75.386719 223.535156 C 73.320312 235.839844 59.5625 245.65625 47.679688 247.25 C 13.496094 251.945312 4.195312 219.167969 2.460938 191.746094 C -0.171875 150.375 -1.0625 81.957031 2.460938 41.148438 C 4.902344 13.023438 26.738281 -9.1875 55.664062 4.289062 C 86.9375 24.433594 72.851562 94.121094 74.539062 127.179688 C 68.90625 145.210938 30.398438 129.101562 18.519531 136.804688 L 18.519531 198.789062 C 18.519531 201.75 22.324219 214.804688 23.824219 218.277344 C 28.664062 229.6875 36.503906 234.335938 49.183594 231.050781 C 68.203125 226.167969 56.929688 192.261719 62.050781 181.933594 C 64.585938 176.8125 75.386719 176.625 75.386719 182.824219 C 75.386719 194.234375 77.125 213.347656 75.386719 223.535156 " clip-rule="nonzero"/></clipPath><clipPath id="74bc4e547e"><rect x="0" width="77" y="0" height="248"/></clipPath><clipPath id="86b373af59"><path d="M 797.078125 198 L 888 198 L 888 448.394531 L 797.078125 448.394531 Z M 797.078125 198 " clip-rule="nonzero"/></clipPath><clipPath id="1082d5bd4f"><path d="M 868.84375 258.175781 C 870.722656 311.523438 879.175781 379.519531 851.140625 427.273438 C 836.582031 442.769531 827.332031 419.902344 823.574219 408.679688 C 809.722656 367.214844 814.746094 322.511719 813.855469 279.449219 C 814.230469 279.589844 815.546875 219.25 830.335938 216.242188 C 845.222656 213.238281 860.90625 220.65625 864.992188 232.773438 M 877.53125 225.683594 C 875.511719 222.253906 872.695312 217.605469 872.507812 217.464844 C 857.105469 190.605469 821.226562 193 808.21875 221.550781 C 790.140625 249.535156 785.585938 506.585938 863.300781 435.773438 C 889.269531 404.125 887.863281 322.085938 886.78125 281.984375 C 886.453125 270.199219 883.777344 253.292969 883.070312 241.507812 " clip-rule="nonzero"/></clipPath><clipPath id="dac48481a7"><path d="M 0.078125 0 L 91 0 L 91 250.394531 L 0.078125 250.394531 Z M 0.078125 0 " clip-rule="nonzero"/></clipPath><clipPath id="e86810f3aa"><path d="M 71.84375 60.175781 C 73.722656 113.523438 82.175781 181.519531 54.140625 229.273438 C 39.582031 244.769531 30.332031 221.902344 26.574219 210.679688 C 12.722656 169.214844 17.746094 124.511719 16.855469 81.449219 C 17.230469 81.589844 18.546875 21.25 33.335938 18.242188 C 48.222656 15.238281 63.90625 22.65625 67.992188 34.773438 M 80.53125 27.683594 C 78.511719 24.253906 75.695312 19.605469 75.507812 19.464844 C 60.105469 -7.394531 24.226562 -5 11.21875 23.550781 C -6.859375 51.535156 -11.414062 308.585938 66.300781 237.773438 C 92.269531 206.125 90.863281 124.085938 89.78125 83.984375 C 89.453125 72.199219 86.777344 55.292969 86.070312 43.507812 " clip-rule="nonzero"/></clipPath><clipPath id="de24d5c022"><rect x="0" width="91" y="0" height="251"/></clipPath><clipPath id="6d4c55d8e2"><path d="M 900 203 L 989.886719 203 L 989.886719 455 L 900 455 Z M 900 203 " clip-rule="nonzero"/></clipPath><clipPath id="2a164fd3c1"><path d="M 914.722656 318.800781 C 950.503906 313.492188 976.285156 272.40625 967.175781 237.328125 C 964.875 228.5 952.429688 221.457031 944.023438 221.457031 L 914.722656 221.457031 Z M 914.722656 331.199219 C 915.894531 368.625 912.1875 406.238281 916.414062 443.382812 C 915.378906 455.402344 905.332031 458.832031 900.539062 447.136719 C 900.726562 368.199219 900.070312 289.214844 900.820312 210.328125 C 905.519531 198.585938 941.910156 205.347656 952.898438 205.535156 C 983.421875 208.730469 987.085938 251.601562 981.683594 274.941406 C 976.285156 298.234375 955.90625 316.6875 936.089844 328.566406 C 950.972656 341.527344 945.246094 361.15625 946.746094 378.109375 C 948.578125 388.722656 954.636719 434.929688 968.675781 433.800781 C 979.429688 430.703125 969.148438 390.976562 972.433594 384.355469 C 974.921875 379.375 984.265625 379.421875 986.664062 384.355469 C 989.246094 389.707031 989.808594 412.199219 989.292969 418.867188 C 987.929688 436.476562 978.585938 456.53125 957.359375 447.230469 C 939.234375 439.25 932.613281 389.191406 930.734375 371.113281 C 929.277344 356.789062 936.324219 332.230469 914.722656 331.292969 " clip-rule="nonzero"/></clipPath><clipPath id="35ce233849"><path d="M 0 0 L 89.886719 0 L 89.886719 252 L 0 252 Z M 0 0 " clip-rule="nonzero"/></clipPath><clipPath id="128cb7e648"><path d="M 14.722656 115.800781 C 50.503906 110.492188 76.285156 69.40625 67.175781 34.328125 C 64.875 25.5 52.429688 18.457031 44.023438 18.457031 L 14.722656 18.457031 Z M 14.722656 128.199219 C 15.894531 165.625 12.1875 203.238281 16.414062 240.382812 C 15.378906 252.402344 5.332031 255.832031 0.539062 244.136719 C 0.726562 165.199219 0.0703125 86.214844 0.820312 7.328125 C 5.519531 -4.414062 41.910156 2.347656 52.898438 2.535156 C 83.421875 5.730469 87.085938 48.601562 81.683594 71.941406 C 76.285156 95.234375 55.90625 113.6875 36.089844 125.566406 C 50.972656 138.527344 45.246094 158.15625 46.746094 175.109375 C 48.578125 185.722656 54.636719 231.929688 68.675781 230.800781 C 79.429688 227.703125 69.148438 187.976562 72.433594 181.355469 C 74.921875 176.375 84.265625 176.421875 86.664062 181.355469 C 89.246094 186.707031 89.808594 209.199219 89.292969 215.867188 C 87.929688 233.476562 78.585938 253.53125 57.359375 244.230469 C 39.234375 236.25 32.613281 186.191406 30.734375 168.113281 C 29.277344 153.789062 36.324219 129.230469 14.722656 128.292969 " clip-rule="nonzero"/></clipPath><clipPath id="ab08ea8328"><rect x="0" width="90" y="0" height="252"/></clipPath><clipPath id="cc59d6458c"><path d="M 1087 203 L 1200.433594 203 L 1200.433594 449 L 1087 449 Z M 1087 203 " clip-rule="nonzero"/></clipPath><clipPath id="e69730b3c2"><path d="M 1116.222656 393.136719 L 1172.148438 393.136719 L 1139.277344 246.203125 C 1135.894531 248.082031 1115.140625 380.363281 1113.636719 387.21875 C 1113.027344 389.285156 1114.34375 392.570312 1116.222656 393.136719 M 1175.480469 409.289062 L 1111.101562 409.289062 C 1105.609375 411.167969 1104.339844 441.316406 1100.207031 446.246094 C 1095.792969 451.503906 1088.328125 445.589844 1087.386719 439.859375 C 1092.320312 408.257812 1100.253906 377.167969 1105.84375 345.660156 C 1113.214844 304.476562 1117.300781 253.480469 1128.570312 214.316406 C 1148.480469 153.601562 1177.40625 368.199219 1183.980469 380.457031 C 1189.195312 401.398438 1197.035156 422.0625 1200.277344 443.195312 C 1182.054688 465.074219 1179.753906 412.058594 1175.433594 409.289062 " clip-rule="nonzero"/></clipPath><clipPath id="50c96f3046"><path d="M 0.359375 0 L 113.398438 0 L 113.398438 246 L 0.359375 246 Z M 0.359375 0 " clip-rule="nonzero"/></clipPath><clipPath id="40a232f9ad"><path d="M 29.222656 190.136719 L 85.148438 190.136719 L 52.277344 43.203125 C 48.894531 45.082031 28.140625 177.363281 26.636719 184.21875 C 26.027344 186.285156 27.34375 189.570312 29.222656 190.136719 M 88.480469 206.289062 L 24.101562 206.289062 C 18.609375 208.167969 17.339844 238.316406 13.207031 243.246094 C 8.792969 248.503906 1.328125 242.589844 0.386719 236.859375 C 5.320312 205.257812 13.253906 174.167969 18.84375 142.660156 C 26.214844 101.476562 30.300781 50.480469 41.570312 11.316406 C 61.480469 -49.398438 90.40625 165.199219 96.980469 177.457031 C 102.195312 198.398438 110.035156 219.0625 113.277344 240.195312 C 95.054688 262.074219 92.753906 209.058594 88.433594 206.289062 " clip-rule="nonzero"/></clipPath><clipPath id="76e7d9ffff"><rect x="0" width="114" y="0" height="246"/></clipPath><clipPath id="8407b8d99b"><path d="M 596 207.089844 L 685.890625 207.089844 L 685.890625 450 L 596 450 Z M 596 207.089844 " clip-rule="nonzero"/></clipPath><clipPath id="ca2edbc9b1"><path d="M 673.074219 207.554688 C 681.007812 205.300781 682.042969 212.910156 682.558594 218.730469 C 686.832031 266.957031 685.800781 360.453125 678.660156 407.972656 C 675.1875 431.21875 664.667969 452.445312 637.386719 449.625 C 602.023438 446.011719 600.242188 400.179688 598.925781 372.898438 C 597 332.652344 594.558594 260.996094 599.207031 222.582031 C 600.148438 214.976562 603.105469 204.785156 612.355469 210.84375 C 616.582031 265.269531 610.242188 335.46875 614.9375 390.601562 C 617.757812 445.917969 665.464844 447.5625 666.5 390.507812 C 670.066406 339.367188 663.304688 284.191406 666.453125 232.914062 C 666.828125 226.902344 667.578125 209.152344 673.121094 207.554688 " clip-rule="nonzero"/></clipPath><clipPath id="24c3571bf1"><path d="M 0 0.0898438 L 89.890625 0.0898438 L 89.890625 243 L 0 243 Z M 0 0.0898438 " clip-rule="nonzero"/></clipPath><clipPath id="42eff396c3"><path d="M 77.074219 0.554688 C 85.007812 -1.699219 86.042969 5.910156 86.558594 11.730469 C 90.832031 59.957031 89.800781 153.453125 82.660156 200.972656 C 79.1875 224.21875 68.667969 245.445312 41.386719 242.625 C 6.023438 239.011719 4.242188 193.179688 2.925781 165.898438 C 1 125.652344 -1.441406 53.996094 3.207031 15.582031 C 4.148438 7.976562 7.105469 -2.214844 16.355469 3.84375 C 20.582031 58.269531 14.242188 128.46875 18.9375 183.601562 C 21.757812 238.917969 69.464844 240.5625 70.5 183.507812 C 74.066406 132.367188 67.304688 77.191406 70.453125 25.914062 C 70.828125 19.902344 71.578125 2.152344 77.121094 0.554688 " clip-rule="nonzero"/></clipPath><clipPath id="df702f541c"><rect x="0" width="90" y="0" height="243"/></clipPath><clipPath id="acc4f443bb"><path d="M 1213.445312 205 L 1279.6875 205 L 1279.6875 448.394531 L 1213.445312 448.394531 Z M 1213.445312 205 " clip-rule="nonzero"/></clipPath><clipPath id="c8ace7360a"><path d="M 1219.246094 448.03125 C 1211.828125 442.066406 1216.476562 436.054688 1216.429688 429.621094 C 1216.898438 361.109375 1208.824219 275.175781 1218.214844 208.449219 C 1225.773438 202.953125 1229.859375 206.664062 1230.800781 215.210938 C 1235.261719 286.117188 1231.410156 360.828125 1230.800781 432.0625 L 1272.546875 432.0625 C 1273.015625 432.0625 1278.648438 434.175781 1278.886719 434.929688 C 1280.011719 438.121094 1277.664062 447.984375 1274.328125 447.984375 Z M 1219.246094 448.03125 " clip-rule="nonzero"/></clipPath><clipPath id="9560ae2ea2"><path d="M 0.445312 0 L 66.6875 0 L 66.6875 243.238281 L 0.445312 243.238281 Z M 0.445312 0 " clip-rule="nonzero"/></clipPath><clipPath id="825bf399e6"><path d="M 6.246094 243.03125 C -1.171875 237.066406 3.476562 231.054688 3.429688 224.621094 C 3.898438 156.109375 -4.175781 70.175781 5.214844 3.449219 C 12.773438 -2.046875 16.859375 1.664062 17.800781 10.210938 C 22.261719 81.117188 18.410156 155.828125 17.800781 227.0625 L 59.546875 227.0625 C 60.015625 227.0625 65.648438 229.175781 65.886719 229.929688 C 67.011719 233.121094 64.664062 242.984375 61.328125 242.984375 Z M 6.246094 243.03125 " clip-rule="nonzero"/></clipPath><clipPath id="4d139755b0"><rect x="0" width="67" y="0" height="244"/></clipPath><clipPath id="6c7f2dc337"><path d="M 478 205.910156 L 592 205.910156 L 592 449 L 478 449 Z M 478 205.910156 " clip-rule="nonzero"/></clipPath><clipPath id="840c5e95ce"><path d="M 507.496094 393.136719 C 505.621094 392.570312 504.304688 389.285156 504.914062 387.21875 C 506.511719 379.894531 527.03125 248.644531 530.554688 246.203125 L 563.425781 393.136719 Z M 575.304688 380.457031 C 515.386719 65.035156 521.867188 234.511719 478.710938 439.859375 C 479.652344 445.589844 487.164062 451.503906 491.53125 446.246094 C 495.664062 441.316406 496.933594 411.167969 502.425781 409.289062 L 566.804688 409.289062 C 571.125 412.058594 573.425781 465.074219 591.648438 443.195312 C 588.359375 422.015625 580.566406 401.351562 575.351562 380.457031 " clip-rule="nonzero"/></clipPath><clipPath id="4cde2b3f6a"><path d="M 0.480469 0.910156 L 113.761719 0.910156 L 113.761719 244 L 0.480469 244 Z M 0.480469 0.910156 " clip-rule="nonzero"/></clipPath><clipPath id="e2ec21d7e1"><path d="M 29.496094 188.136719 C 27.621094 187.570312 26.304688 184.285156 26.914062 182.21875 C 28.511719 174.894531 49.03125 43.644531 52.554688 41.203125 L 85.425781 188.136719 Z M 97.304688 175.457031 C 37.386719 -139.964844 43.867188 29.511719 0.710938 234.859375 C 1.652344 240.589844 9.164062 246.503906 13.53125 241.246094 C 17.664062 236.316406 18.933594 206.167969 24.425781 204.289062 L 88.804688 204.289062 C 93.125 207.058594 95.425781 260.074219 113.648438 238.195312 C 110.359375 217.015625 102.566406 196.351562 97.351562 175.457031 " clip-rule="nonzero"/></clipPath><clipPath id="98c2373a26"><rect x="0" width="114" y="0" height="244"/></clipPath><clipPath id="d75802d34c"><path d="M 697 203.542969 L 787.617188 203.542969 L 787.617188 455 L 697 455 Z M 697 203.542969 " clip-rule="nonzero"/></clipPath><clipPath id="2efada437a"><path d="M 712.425781 318.800781 C 748.066406 312.742188 773.847656 273.015625 764.5 237.703125 C 762.199219 228.96875 749.992188 221.457031 741.726562 221.457031 L 712.425781 221.457031 Z M 712.425781 450.707031 C 711.296875 454.230469 702.28125 456.390625 699.839844 452.164062 C 698.054688 396.9375 696.316406 264.609375 698.101562 211.640625 C 698.902344 205.253906 702.09375 204.832031 708.152344 203.941406 C 716.132812 202.765625 744.824219 204.832031 753.371094 206.335938 C 768.820312 209.011719 776.195312 222.910156 779.433594 237 C 788.683594 277.382812 767.460938 308.796875 733.789062 328.566406 C 748.441406 342.1875 743.042969 363.738281 744.636719 381.441406 C 745.484375 390.601562 753.558594 431.59375 763.328125 433.566406 C 773.753906 433.097656 771.261719 414.40625 771.121094 406.378906 C 771.027344 399.898438 765.675781 385.199219 772.8125 381.679688 C 777.460938 379.753906 781.734375 379.941406 783.941406 384.777344 C 787.558594 402.386719 792.066406 436.667969 772.859375 447.230469 C 738.488281 460.660156 730.691406 396.796875 728.4375 374.585938 C 726.933594 359.605469 734.589844 332.980469 712.425781 331.246094 Z M 712.425781 450.707031 " clip-rule="nonzero"/></clipPath><clipPath id="b0fe779e5c"><path d="M 0 0.542969 L 90.617188 0.542969 L 90.617188 252 L 0 252 Z M 0 0.542969 " clip-rule="nonzero"/></clipPath><clipPath id="a16c0d6e1c"><path d="M 15.425781 115.800781 C 51.066406 109.742188 76.847656 70.015625 67.5 34.703125 C 65.199219 25.96875 52.992188 18.457031 44.726562 18.457031 L 15.425781 18.457031 Z M 15.425781 247.707031 C 14.296875 251.230469 5.28125 253.390625 2.839844 249.164062 C 1.054688 193.9375 -0.683594 61.609375 1.101562 8.640625 C 1.902344 2.253906 5.09375 1.832031 11.152344 0.941406 C 19.132812 -0.234375 47.824219 1.832031 56.371094 3.335938 C 71.820312 6.011719 79.195312 19.910156 82.433594 34 C 91.683594 74.382812 70.460938 105.796875 36.789062 125.566406 C 51.441406 139.1875 46.042969 160.738281 47.636719 178.441406 C 48.484375 187.601562 56.558594 228.59375 66.328125 230.566406 C 76.753906 230.097656 74.261719 211.40625 74.121094 203.378906 C 74.027344 196.898438 68.675781 182.199219 75.8125 178.679688 C 80.460938 176.753906 84.734375 176.941406 86.941406 181.777344 C 90.558594 199.386719 95.066406 233.667969 75.859375 244.230469 C 41.488281 257.660156 33.691406 193.796875 31.4375 171.585938 C 29.933594 156.605469 37.589844 129.980469 15.425781 128.246094 Z M 15.425781 247.707031 " clip-rule="nonzero"/></clipPath><clipPath id="e59faf9157"><rect x="0" width="91" y="0" height="252"/></clipPath><clipPath id="8525a962f8"><rect x="0" width="1304" y="0" height="542"/></clipPath></defs><g transform="matrix(1, 0, 0, 1, 68, 134)"><g clip-path="url(#8525a962f8)"><g clip-path="url(#b2fc41a542)"><g clip-path="url(#d40ba9b223)"><g transform="matrix(1, 0, 0, 1, 45, 22)"><g clip-path="url(#d72d695f3d)"><g clip-path="url(#14777baa9e)"><g clip-path="url(#8ed0d963eb)"><rect x="-637.16" width="2488.32" fill="#662d91" y="-450.839997" height="1399.679988" fill-opacity="1"/></g></g></g></g></g></g><g clip-path="url(#1e158cdcab)"><g clip-path="url(#656e6f3162)"><g transform="matrix(1, 0, 0, 1, 156, 194)"><g clip-path="url(#658a1b1ec3)"><g clip-path="url(#7b05996506)"><g clip-path="url(#dfdfe8c41a)"><rect x="-748.16" width="2488.32" fill="#662d91" y="-622.839997" height="1399.679988" fill-opacity="1"/></g></g></g></g></g></g><g clip-path="url(#77203f3c23)"><g clip-path="url(#722972fada)"><g transform="matrix(1, 0, 0, 1, 256, 194)"><g clip-path="url(#5c0a9912c3)"><g clip-path="url(#1c5e9462c1)"><g clip-path="url(#6fc6d16e0c)"><rect x="-848.16" width="2488.32" fill="#662d91" y="-622.839997" height="1399.679988" fill-opacity="1"/></g></g></g></g></g></g><g clip-path="url(#c80e20c174)"><g clip-path="url(#8773667440)"><g transform="matrix(1, 0, 0, 1, 239, 246)"><g clip-path="url(#e8508f2ff7)"><g clip-path="url(#0c8f9cdce3)"><g clip-path="url(#b48e5029b3)"><rect x="-831.16" width="2488.32" fill="#f8941d" y="-674.839997" height="1399.679988" fill-opacity="1"/></g></g></g></g></g></g><g clip-path="url(#b8ad1b7fa0)"><g clip-path="url(#bcc5288999)"><g transform="matrix(1, 0, 0, 1, 56, 246)"><g clip-path="url(#0178d04003)"><g clip-path="url(#2980659f07)"><g clip-path="url(#02123265dc)"><rect x="-648.16" width="2488.32" fill="#f8941d" y="-674.839997" height="1399.679988" fill-opacity="1"/></g></g></g></g></g></g><g clip-path="url(#d2391acb94)"><g clip-path="url(#bd4714fda6)"><g transform="matrix(1, 0, 0, 1, 31, 307)"><g clip-path="url(#bd2bf1bcc0)"><g clip-path="url(#5277b85dab)"><g clip-path="url(#de8787eb52)"><rect x="-623.16" width="2488.32" fill="#ffffff" y="-735.839997" height="1399.679988" fill-opacity="1"/></g></g></g></g></g></g><g clip-path="url(#d5eeffca6c)"><g clip-path="url(#b4be3ebfd2)"><g transform="matrix(1, 0, 0, 1, 26, 302)"><g clip-path="url(#df4b8a9e14)"><g clip-path="url(#52d28c7050)"><g clip-path="url(#8287169f6f)"><rect x="-618.16" width="2488.32" fill="#662d91" y="-730.839997" height="1399.679988" fill-opacity="1"/></g></g></g></g></g></g><g clip-path="url(#6eddae65fa)"><g clip-path="url(#598411104c)"><g transform="matrix(1, 0, 0, 1, 31, 347)"><g clip-path="url(#a542aaa6e4)"><g clip-path="url(#0ec3f34dec)"><g clip-path="url(#f20e1fd3bc)"><rect x="-623.16" width="2488.32" fill="#ffffff" y="-775.839997" height="1399.679988" fill-opacity="1"/></g></g></g></g></g></g><g clip-path="url(#fc2c0e0a0f)"><g clip-path="url(#13189c85ca)"><g transform="matrix(1, 0, 0, 1, 27, 342)"><g clip-path="url(#b7b12003d0)"><g clip-path="url(#2f25b20c8f)"><g clip-path="url(#8b05494dea)"><rect x="-619.16" width="2488.32" fill="#662d91" y="-770.839997" height="1399.679988" fill-opacity="1"/></g></g></g></g></g></g><g clip-path="url(#cb42f0ce14)"><g clip-path="url(#ebdb24638a)"><g transform="matrix(1, 0, 0, 1, 28, 327)"><g clip-path="url(#b7fa891297)"><g clip-path="url(#1f97ffd572)"><g clip-path="url(#797a72c739)"><rect x="-620.16" width="2488.32" fill="#ffffff" y="-755.839997" height="1399.679988" fill-opacity="1"/></g></g></g></g></g></g><g clip-path="url(#fc183011f9)"><g clip-path="url(#dc7be6f76b)"><g transform="matrix(1, 0, 0, 1, 23, 322)"><g clip-path="url(#2f047f7e59)"><g clip-path="url(#2d4dde2417)"><g clip-path="url(#2eb92135e3)"><rect x="-615.16" width="2488.32" fill="#662d91" y="-750.839997" height="1399.679988" fill-opacity="1"/></g></g></g></g></g></g><g clip-path="url(#684a3607b4)"><g clip-path="url(#b201e657c1)"><g transform="matrix(1, 0, 0, 1, 383, 307)"><g clip-path="url(#7747a4a780)"><g clip-path="url(#ec8932ef47)"><g clip-path="url(#a51f53bd28)"><rect x="-975.16" width="2488.32" fill="#ffffff" y="-735.839997" height="1399.679988" fill-opacity="1"/></g></g></g></g></g></g><g clip-path="url(#e9f13c58eb)"><g clip-path="url(#08ed0aacc0)"><g transform="matrix(1, 0, 0, 1, 378, 302)"><g clip-path="url(#377edffbad)"><g clip-path="url(#58e3e9472c)"><g clip-path="url(#62c62a8f67)"><rect x="-970.16" width="2488.32" fill="#662d91" y="-730.839997" height="1399.679988" fill-opacity="1"/></g></g></g></g></g></g><g clip-path="url(#87f7a2eecf)"><g clip-path="url(#174575dc50)"><g transform="matrix(1, 0, 0, 1, 388, 347)"><g clip-path="url(#48987402f6)"><g clip-path="url(#5fede5c98f)"><g clip-path="url(#c4c1eb7a77)"><rect x="-980.16" width="2488.32" fill="#ffffff" y="-775.839997" height="1399.679988" fill-opacity="1"/></g></g></g></g></g></g><g clip-path="url(#16c951d150)"><g clip-path="url(#3cdbc9c1d7)"><g transform="matrix(1, 0, 0, 1, 383, 342)"><g clip-path="url(#335a6dc11a)"><g clip-path="url(#8bfd7d81ae)"><g clip-path="url(#2bb8ebf1d6)"><rect x="-975.16" width="2488.32" fill="#662d91" y="-770.839997" height="1399.679988" fill-opacity="1"/></g></g></g></g></g></g><g clip-path="url(#d2626a47d7)"><g clip-path="url(#f55a44304c)"><g transform="matrix(1, 0, 0, 1, 383, 327)"><g clip-path="url(#c2722757f3)"><g clip-path="url(#90212a06d6)"><g clip-path="url(#59203d6cf9)"><rect x="-975.16" width="2488.32" fill="#ffffff" y="-755.839997" height="1399.679988" fill-opacity="1"/></g></g></g></g></g></g><g clip-path="url(#a2ff1fc135)"><g clip-path="url(#e4475ad567)"><g transform="matrix(1, 0, 0, 1, 379, 322)"><g clip-path="url(#4464cb8e84)"><g clip-path="url(#076fb51a2c)"><g clip-path="url(#da357b1259)"><rect x="-971.16" width="2488.32" fill="#662d91" y="-750.839997" height="1399.679988" fill-opacity="1"/></g></g></g></g></g></g><g clip-path="url(#1675e29660)"><g clip-path="url(#91e855c32e)"><g transform="matrix(1, 0, 0, 1, 1002, 202)"><g clip-path="url(#74bc4e547e)"><g clip-path="url(#bdb4f008d7)"><g clip-path="url(#0502be79a2)"><rect x="-1594.16" width="2488.32" fill="#662d91" y="-630.839997" height="1399.679988" fill-opacity="1"/></g></g></g></g></g></g><g clip-path="url(#86b373af59)"><g clip-path="url(#1082d5bd4f)"><g transform="matrix(1, 0, 0, 1, 797, 198)"><g clip-path="url(#de24d5c022)"><g clip-path="url(#dac48481a7)"><g clip-path="url(#e86810f3aa)"><rect x="-1389.16" width="2488.32" fill="#662d91" y="-626.839997" height="1399.679988" fill-opacity="1"/></g></g></g></g></g></g><g clip-path="url(#6d4c55d8e2)"><g clip-path="url(#2a164fd3c1)"><g transform="matrix(1, 0, 0, 1, 900, 203)"><g clip-path="url(#ab08ea8328)"><g clip-path="url(#35ce233849)"><g clip-path="url(#128cb7e648)"><rect x="-1492.16" width="2488.32" fill="#662d91" y="-631.839997" height="1399.679988" fill-opacity="1"/></g></g></g></g></g></g><g clip-path="url(#cc59d6458c)"><g clip-path="url(#e69730b3c2)"><g transform="matrix(1, 0, 0, 1, 1087, 203)"><g clip-path="url(#76e7d9ffff)"><g clip-path="url(#50c96f3046)"><g clip-path="url(#40a232f9ad)"><rect x="-1679.16" width="2488.32" fill="#662d91" y="-631.839997" height="1399.679988" fill-opacity="1"/></g></g></g></g></g></g><g clip-path="url(#8407b8d99b)"><g clip-path="url(#ca2edbc9b1)"><g transform="matrix(1, 0, 0, 1, 596, 207)"><g clip-path="url(#df702f541c)"><g clip-path="url(#24c3571bf1)"><g clip-path="url(#42eff396c3)"><rect x="-1188.16" width="2488.32" fill="#662d91" y="-635.839997" height="1399.679988" fill-opacity="1"/></g></g></g></g></g></g><g clip-path="url(#acc4f443bb)"><g clip-path="url(#c8ace7360a)"><g transform="matrix(1, 0, 0, 1, 1213, 205)"><g clip-path="url(#4d139755b0)"><g clip-path="url(#9560ae2ea2)"><g clip-path="url(#825bf399e6)"><rect x="-1805.16" width="2488.32" fill="#662d91" y="-633.839997" height="1399.679988" fill-opacity="1"/></g></g></g></g></g></g><g clip-path="url(#6c7f2dc337)"><g clip-path="url(#840c5e95ce)"><g transform="matrix(1, 0, 0, 1, 478, 205)"><g clip-path="url(#98c2373a26)"><g clip-path="url(#4cde2b3f6a)"><g clip-path="url(#e2ec21d7e1)"><rect x="-1070.16" width="2488.32" fill="#662d91" y="-633.839997" height="1399.679988" fill-opacity="1"/></g></g></g></g></g></g><g clip-path="url(#d75802d34c)"><g clip-path="url(#2efada437a)"><g transform="matrix(1, 0, 0, 1, 697, 203)"><g clip-path="url(#e59faf9157)"><g clip-path="url(#b0fe779e5c)"><g clip-path="url(#a16c0d6e1c)"><rect x="-1289.16" width="2488.32" fill="#662d91" y="-631.839997" height="1399.679988" fill-opacity="1"/></g></g></g></g></g></g></g></g></svg>